<svg width="453" height="640" viewBox="0 0 453 640" fill="none" xmlns="http://www.w3.org/2000/svg">
<path opacity="0.8" d="M396.087 -18.7731C387.796 -42.1093 345.386 -55.1721 325.217 -58.7865L0.943481 -84.3359L-47.901 535.597C-40.8014 556.746 -20.4483 604.998 4.16804 628.811C34.9385 658.576 87.3978 623.217 68.719 588.328C53.7758 560.417 46.9611 543.071 45.4216 537.886C42.8184 521.479 44.0733 483.301 69.9188 461.844C102.226 435.023 98.9253 439.826 126.997 442.038C155.068 444.25 175.666 467.138 211.545 456.8C247.423 446.463 259.577 428.181 257.37 406.742C255.163 385.302 251.45 382.985 245.388 373.393C239.326 363.802 205.78 369.26 214.617 343.628C223.455 317.996 276.585 360.662 324.617 332.042C372.65 303.422 393.007 267.559 363.872 254.124C334.737 240.69 299.367 269.295 284.593 259.017C269.819 248.739 286.813 230.838 340.829 212.816C389.221 191.988 478.059 142.416 446.27 110.747C406.533 71.1615 373.734 91.8678 352.802 60.8522C331.87 29.8367 406.451 10.3971 396.087 -18.7731Z" fill="url(#paint0_linear)"/>
<defs>
<linearGradient id="paint0_linear" x1="339.039" y1="-36.4321" x2="-60.7772" y2="520.515" gradientUnits="userSpaceOnUse">
<stop stop-color="#03506F"/>
<stop offset="1" stop-color="#FFE3D8"/>
</linearGradient>
</defs>
</svg>
